<?xml version="1.0" encoding="UTF-8" standalone="no"?>
<!-- Created with Inkscape (http://www.inkscape.org/) -->

<svg
   xmlns:dc="http://purl.org/dc/elements/1.1/"
   xmlns:cc="http://creativecommons.org/ns#"
   xmlns:rdf="http://www.w3.org/1999/02/22-rdf-syntax-ns#"
   xmlns:svg="http://www.w3.org/2000/svg"
   xmlns="http://www.w3.org/2000/svg"
   xmlns:xlink="http://www.w3.org/1999/xlink"
   version="1.1"
   width="219.375"
   height="98.84375"
   id="svg2">
  <defs
     id="defs4">
    <marker
       refX="0"
       refY="0"
       orient="auto"
       id="Arrow2Mend"
       style="overflow:visible">
      <path
         d="M 8.7185878,4.0337352 -2.2072895,0.01601326 8.7185884,-4.0017078 c -1.7454984,2.3720609 -1.7354408,5.6174519 -6e-7,8.035443 z"
         transform="scale(-0.6,-0.6)"
         id="path4601"
         style="fill-rule:evenodd;stroke-width:0.625;stroke-linejoin:round" />
    </marker>
    <marker
       refX="0"
       refY="0"
       orient="auto"
       id="Arrow2Lend"
       style="overflow:visible">
      <path
         d="M 8.7185878,4.0337352 -2.2072895,0.01601326 8.7185884,-4.0017078 c -1.7454984,2.3720609 -1.7354408,5.6174519 -6e-7,8.035443 z"
         transform="matrix(-1.1,0,0,-1.1,-1.1,0)"
         id="path4595"
         style="fill-rule:evenodd;stroke-width:0.625;stroke-linejoin:round" />
    </marker>
    <marker
       refX="0"
       refY="0"
       orient="auto"
       id="Arrow1Lend"
       style="overflow:visible">
      <path
         d="M 0,0 5,-5 -12.5,0 5,5 0,0 z"
         transform="matrix(-0.8,0,0,-0.8,-10,0)"
         id="path4577"
         style="fill-rule:evenodd;stroke:#000000;stroke-width:1pt" />
    </marker>
  </defs>
  <metadata
     id="metadata7">
    <rdf:RDF>
      <cc:Work
         rdf:about="">
        <dc:format>image/svg+xml</dc:format>
        <dc:type
           rdf:resource="http://purl.org/dc/dcmitype/StillImage" />
        <dc:title></dc:title>
      </cc:Work>
    </rdf:RDF>
  </metadata>
  <g
     transform="translate(-452.4375,-359.07874)"
     id="layer2"
     style="display:none">
    <image
       xlink:href="file:///Users/vern/Pictures/X11ScreenSnapz035.png"
       x="45.155151"
       y="177.10425"
       width="886"
       height="801"
       id="image3470" />
  </g>
  <g
     transform="translate(-452.4375,-359.07874)"
     id="layer3"
     style="opacity:0.7;display:inline">
    <path
       d="m 485.82731,408.4944 158.25607,0"
       id="path4030"
       style="fill:none;stroke:#808080;stroke-width:1.840693;stroke-linecap:butt;stroke-linejoin:miter;stroke-miterlimit:4;stroke-opacity:1;stroke-dasharray:none;display:inline" />
    <path
       d="m 597,923.35999 a 63,66 0 1 1 -126,0 63,66 0 1 1 126,0 z"
       transform="matrix(0.15884916,0,0,0.15884916,400.5972,261.64794)"
       id="path4224"
       style="opacity:0.5;fill:none;stroke:#000000;stroke-width:9.38601971;stroke-miterlimit:4;stroke-opacity:1;stroke-dasharray:none;display:inline" />
    <rect
       width="20.351456"
       height="20.351456"
       x="111.66071"
       y="689.2912"
       transform="matrix(0.70710678,-0.70710678,0.70710678,0.70710678,0,0)"
       id="rect4460"
       style="opacity:0.6;fill:#000000;fill-opacity:1;stroke:none;display:inline" />
    <path
       d="m 588.72585,1158.9526 0,-31.9764"
       id="path4464"
       style="fill:none;stroke:#8c8c8c;stroke-width:1;stroke-linecap:butt;stroke-linejoin:miter;stroke-miterlimit:4;stroke-opacity:1;stroke-dasharray:none;display:inline" />
    <rect
       width="7.8101053"
       height="7.8101053"
       x="-1227.6444"
       y="-395.24216"
       transform="matrix(-0.70710678,-0.70710678,0.70710678,-0.70710678,0,0)"
       id="rect4470"
       style="fill:#9c9c9c;fill-opacity:1;stroke:none;display:inline" />
    <path
       d="m 597,923.35999 a 63,66 0 1 1 -126,0 63,66 0 1 1 126,0 z"
       transform="matrix(0,-0.05647774,0.05647774,0,536.56934,1157.0533)"
       id="path4499"
       style="fill:none;stroke:#9a9a9a;stroke-width:17.70609093;stroke-miterlimit:4;stroke-opacity:1;stroke-dasharray:none;display:inline" />
    <path
       d="m 597,923.35999 a 63,66 0 1 1 -126,0 63,66 0 1 1 126,0 z"
       transform="matrix(0,-0.05647774,0.05647774,0,536.56934,1188.9595)"
       id="path4501"
       style="fill:none;stroke:#9a9a9a;stroke-width:17.70609093;stroke-miterlimit:4;stroke-opacity:1;stroke-dasharray:none;display:inline" />
    <path
       d="m 945.6874,1158.9526 0,-31.9764"
       id="path4503"
       style="fill:none;stroke:#8c8c8c;stroke-width:1;stroke-linecap:butt;stroke-linejoin:miter;stroke-miterlimit:4;stroke-opacity:1;stroke-dasharray:none;display:inline" />
    <rect
       width="7.8101053"
       height="7.8101053"
       x="-1480.0536"
       y="-142.83221"
       transform="matrix(-0.70710678,-0.70710678,0.70710678,-0.70710678,0,0)"
       id="rect4505"
       style="fill:#9c9c9c;fill-opacity:1;stroke:none;display:inline" />
    <path
       d="m 597,923.35999 a 63,66 0 1 1 -126,0 63,66 0 1 1 126,0 z"
       transform="matrix(0,-0.05647774,0.05647774,0,893.5309,1157.0533)"
       id="path4507"
       style="fill:none;stroke:#9a9a9a;stroke-width:17.70609093;stroke-miterlimit:4;stroke-opacity:1;stroke-dasharray:none;display:inline" />
    <path
       d="m 597,923.35999 a 63,66 0 1 1 -126,0 63,66 0 1 1 126,0 z"
       transform="matrix(0,-0.05647774,0.05647774,0,893.5309,1188.9595)"
       id="path4509"
       style="fill:none;stroke:#9a9a9a;stroke-width:17.70609093;stroke-miterlimit:4;stroke-opacity:1;stroke-dasharray:none;display:inline" />
    <g
       transform="matrix(0,1,-1,0,1383.0249,412.3114)"
       id="g4517"
       style="display:inline">
      <path
         d="m 746.29299,785.3049 0,-9.97635"
         id="path4511"
         style="fill:none;stroke:#8c8c8c;stroke-width:1;stroke-linecap:butt;stroke-linejoin:miter;stroke-miterlimit:4;stroke-opacity:1;stroke-dasharray:none" />
      <path
         d="m 746.34014,780.08058 -5.52257,-9.63964 11.04515,0 z"
         id="path4513"
         style="fill:#9c9c9c;fill-opacity:1;stroke:none" />
      <path
         d="m 597,923.35999 a 63,66 0 1 1 -126,0 63,66 0 1 1 126,0 z"
         transform="matrix(0,-0.05647774,0.05647774,0,693.90335,815.32339)"
         id="path4515"
         style="fill:none;stroke:#959595;stroke-width:17.70609093;stroke-miterlimit:4;stroke-opacity:1;stroke-dasharray:none" />
      <path
         d="m 746.29299,443.56293 0,9.97635"
         id="path4522"
         style="fill:none;stroke:#8c8c8c;stroke-width:1;stroke-linecap:butt;stroke-linejoin:miter;stroke-miterlimit:4;stroke-opacity:1;stroke-dasharray:none" />
      <path
         d="m 746.34014,448.78725 -5.52257,9.63964 11.04515,0 z"
         id="path4524"
         style="fill:#9c9c9c;fill-opacity:1;stroke:none" />
      <path
         d="m 597,923.35999 a 63,66 0 1 1 -126,0 63,66 0 1 1 126,0 z"
         transform="matrix(0,0.05647774,0.05647774,0,693.90335,413.54444)"
         id="path4526"
         style="fill:none;stroke:#959595;stroke-width:17.70609093;stroke-miterlimit:4;stroke-opacity:1;stroke-dasharray:none" />
    </g>
    <path
       d="m 597,923.35999 a 63,66 0 1 1 -126,0 63,66 0 1 1 126,0 z"
       transform="matrix(0.15884916,0,0,0.15884916,558.8918,261.89005)"
       id="path4393"
       style="opacity:0.5;fill:none;stroke:#000000;stroke-width:9.38601971;stroke-miterlimit:4;stroke-opacity:1;stroke-dasharray:none;display:inline" />
    <path
       d="m 526.9375,441.42249 52.5,-32.5"
       id="path5307"
       style="fill:none;stroke:#000000;stroke-width:1px;stroke-linecap:butt;stroke-linejoin:miter;stroke-opacity:1;marker-end:url(#Arrow2Mend)" />
    <path
       d="m 549.9375,381.42249 23,19"
       id="path5497"
       style="fill:none;stroke:#000000;stroke-width:1px;stroke-linecap:butt;stroke-linejoin:miter;stroke-opacity:1;marker-end:url(#Arrow2Mend)" />
    <text
       x="515.9375"
       y="375.92249"
       id="text5499"
       xml:space="preserve"
       style="font-size:40px;font-style:normal;font-weight:normal;line-height:125%;letter-spacing:0px;word-spacing:0px;fill:#000000;fill-opacity:1;stroke:none;font-family:Sans"><tspan
         x="515.9375"
         y="375.92249"
         id="tspan5501"
         style="font-size:10px;font-style:normal;font-variant:normal;font-weight:normal;font-stretch:normal;font-family:OxygenSans;-inkscape-font-specification:OxygenSans">limit of point grab</tspan></text>
    <text
       x="462.9375"
       y="444.42249"
       id="text5503"
       xml:space="preserve"
       style="font-size:40px;font-style:normal;font-weight:normal;line-height:125%;letter-spacing:0px;word-spacing:0px;fill:#000000;fill-opacity:1;stroke:none;font-family:Sans"><tspan
         x="462.9375"
         y="444.42249"
         id="tspan5505"
         style="font-size:10px;font-style:normal;font-variant:normal;font-weight:normal;font-stretch:normal;font-family:OxygenSans;-inkscape-font-specification:OxygenSans">locus of point</tspan></text>
  </g>
  <g
     transform="translate(-452.4375,40.919095)"
     id="layer1"
     style="display:inline">
    <g
       transform="translate(16,39.8)"
       id="text4547"
       style="font-size:20.44048309px;font-style:normal;font-weight:normal;line-height:125%;letter-spacing:0px;word-spacing:0px;fill:#000000;fill-opacity:1;stroke:none;font-family:Sans" />
    <path
       d="m 580.59512,2.9269335 0,11.2756785"
       id="path4560"
       style="fill:none;stroke:#000000;stroke-width:0.9203465;stroke-linecap:butt;stroke-linejoin:miter;stroke-miterlimit:4;stroke-opacity:1;stroke-dasharray:none" />
  </g>
</svg>
