<?xml version="1.0" encoding="UTF-8" standalone="no"?>
<!-- Created with Inkscape (http://www.inkscape.org/) -->

<svg
   xmlns:dc="http://purl.org/dc/elements/1.1/"
   xmlns:cc="http://creativecommons.org/ns#"
   xmlns:rdf="http://www.w3.org/1999/02/22-rdf-syntax-ns#"
   xmlns:svg="http://www.w3.org/2000/svg"
   xmlns="http://www.w3.org/2000/svg"
   xmlns:xlink="http://www.w3.org/1999/xlink"
   version="1.1"
   width="266"
   height="173"
   id="svg2">
  <defs
     id="defs4" />
  <metadata
     id="metadata7">
    <rdf:RDF>
      <cc:Work
         rdf:about="">
        <dc:format>image/svg+xml</dc:format>
        <dc:type
           rdf:resource="http://purl.org/dc/dcmitype/StillImage" />
        <dc:title></dc:title>
      </cc:Work>
    </rdf:RDF>
  </metadata>
  <g
     transform="translate(-429,77.637845)"
     id="layer1"
     style="display:inline">
    <g
       id="text4547"
       style="font-size:20.44048309px;font-style:normal;font-weight:normal;line-height:125%;letter-spacing:0px;word-spacing:0px;fill:#000000;fill-opacity:1;stroke:none;font-family:Sans" />
    <path
       d="m 444.5,5.02168 c 71,-42 106,-64 155,-64 49,0 81,22 81,81 0,59 0,59 0,59"
       id="path4489"
       style="opacity:0.6;fill:none;stroke:#000000;stroke-width:1.20000005;stroke-linecap:butt;stroke-linejoin:miter;stroke-miterlimit:4;stroke-opacity:1;stroke-dasharray:none;display:inline" />
  </g>
  <g
     transform="translate(-429,-322.35999)"
     id="layer2"
     style="display:none">
    <image
       xlink:href="file:///Users/vern/Pictures/X11ScreenSnapz035.png"
       x="45.155151"
       y="177.10425"
       width="886"
       height="801"
       id="image3470" />
  </g>
  <g
     transform="translate(-429,-322.35999)"
     id="layer3"
     style="opacity:0.7;display:inline">
    <path
       d="m 525.56745,340.76242 145.97635,0"
       id="path4030"
       style="fill:none;stroke:#8c8c8c;stroke-width:1;stroke-linecap:butt;stroke-linejoin:miter;stroke-miterlimit:4;stroke-opacity:1;stroke-dasharray:none;display:inline" />
    <path
       d="m 597,923.35999 a 63,66 0 1 1 -126,0 63,66 0 1 1 126,0 z"
       transform="matrix(0.08629856,0,0,0.08629856,479.34073,260.77251)"
       id="path4224"
       style="opacity:0.5;fill:none;stroke:#434343;stroke-width:9.38601971;stroke-miterlimit:4;stroke-opacity:1;stroke-dasharray:none;display:inline" />
    <path
       d="m 597,923.35999 a 63,66 0 1 1 -126,0 63,66 0 1 1 126,0 z"
       transform="matrix(0.08629856,0,0,0.08629856,634.2165,302.05771)"
       id="path4259"
       style="opacity:0.5;fill:none;stroke:#434343;stroke-width:9.38601971;stroke-miterlimit:4;stroke-opacity:1;stroke-dasharray:none;display:inline" />
    <rect
       width="11.05641"
       height="11.05641"
       x="180.01636"
       y="661.89032"
       transform="matrix(0.70710678,-0.70710678,0.70710678,0.70710678,0,0)"
       id="rect4460"
       style="opacity:0.6;fill:#000000;fill-opacity:1;stroke:none;display:inline" />
    <path
       d="m 572.72585,1118.9526 0,-31.9764"
       id="path4464"
       style="fill:none;stroke:#8c8c8c;stroke-width:1;stroke-linecap:butt;stroke-linejoin:miter;stroke-miterlimit:4;stroke-opacity:1;stroke-dasharray:none;display:inline" />
    <rect
       width="7.8101053"
       height="7.8101053"
       x="-1188.0465"
       y="-378.27158"
       transform="matrix(-0.70710678,-0.70710678,0.70710678,-0.70710678,0,0)"
       id="rect4470"
       style="fill:#9c9c9c;fill-opacity:1;stroke:none;display:inline" />
    <path
       d="m 680.2166,382.35631 0,33.97636"
       id="path4482"
       style="fill:none;stroke:#8c8c8c;stroke-width:1;stroke-linecap:butt;stroke-linejoin:miter;stroke-miterlimit:4;stroke-opacity:1;stroke-dasharray:none;display:inline" />
    <path
       d="m 597,923.35999 a 63,66 0 1 1 -126,0 63,66 0 1 1 126,0 z"
       transform="matrix(0,-0.05647774,0.05647774,0,520.56934,1117.0533)"
       id="path4499"
       style="fill:none;stroke:#9a9a9a;stroke-width:17.70609093;stroke-miterlimit:4;stroke-opacity:1;stroke-dasharray:none;display:inline" />
    <path
       d="m 597,923.35999 a 63,66 0 1 1 -126,0 63,66 0 1 1 126,0 z"
       transform="matrix(0,-0.05647774,0.05647774,0,520.56934,1148.9595)"
       id="path4501"
       style="fill:none;stroke:#9a9a9a;stroke-width:17.70609093;stroke-miterlimit:4;stroke-opacity:1;stroke-dasharray:none;display:inline" />
    <path
       d="m 929.6874,1118.9526 0,-31.9764"
       id="path4503"
       style="fill:none;stroke:#8c8c8c;stroke-width:1;stroke-linecap:butt;stroke-linejoin:miter;stroke-miterlimit:4;stroke-opacity:1;stroke-dasharray:none;display:inline" />
    <rect
       width="7.8101053"
       height="7.8101053"
       x="-1440.4557"
       y="-125.86164"
       transform="matrix(-0.70710678,-0.70710678,0.70710678,-0.70710678,0,0)"
       id="rect4505"
       style="fill:#9c9c9c;fill-opacity:1;stroke:none;display:inline" />
    <path
       d="m 597,923.35999 a 63,66 0 1 1 -126,0 63,66 0 1 1 126,0 z"
       transform="matrix(0,-0.05647774,0.05647774,0,877.5309,1117.0533)"
       id="path4507"
       style="fill:none;stroke:#9a9a9a;stroke-width:17.70609093;stroke-miterlimit:4;stroke-opacity:1;stroke-dasharray:none;display:inline" />
    <path
       d="m 597,923.35999 a 63,66 0 1 1 -126,0 63,66 0 1 1 126,0 z"
       transform="matrix(0,-0.05647774,0.05647774,0,877.5309,1148.9595)"
       id="path4509"
       style="fill:none;stroke:#9a9a9a;stroke-width:17.70609093;stroke-miterlimit:4;stroke-opacity:1;stroke-dasharray:none;display:inline" />
    <g
       transform="matrix(0,1,-1,0,1367.0249,372.3114)"
       id="g4517"
       style="display:inline">
      <path
         d="m 746.29299,785.3049 0,-9.97635"
         id="path4511"
         style="fill:none;stroke:#8c8c8c;stroke-width:1;stroke-linecap:butt;stroke-linejoin:miter;stroke-miterlimit:4;stroke-opacity:1;stroke-dasharray:none" />
      <path
         d="m 746.34014,780.08058 -5.52257,-9.63964 11.04515,0 z"
         id="path4513"
         style="fill:#9c9c9c;fill-opacity:1;stroke:none" />
      <path
         d="m 597,923.35999 a 63,66 0 1 1 -126,0 63,66 0 1 1 126,0 z"
         transform="matrix(0,-0.05647774,0.05647774,0,693.90335,815.32339)"
         id="path4515"
         style="fill:none;stroke:#959595;stroke-width:17.70609093;stroke-miterlimit:4;stroke-opacity:1;stroke-dasharray:none" />
      <path
         d="m 746.29299,443.56293 0,9.97635"
         id="path4522"
         style="fill:none;stroke:#8c8c8c;stroke-width:1;stroke-linecap:butt;stroke-linejoin:miter;stroke-miterlimit:4;stroke-opacity:1;stroke-dasharray:none" />
      <path
         d="m 746.34014,448.78725 -5.52257,9.63964 11.04515,0 z"
         id="path4524"
         style="fill:#9c9c9c;fill-opacity:1;stroke:none" />
      <path
         d="m 597,923.35999 a 63,66 0 1 1 -126,0 63,66 0 1 1 126,0 z"
         transform="matrix(0,0.05647774,0.05647774,0,693.90335,413.54444)"
         id="path4526"
         style="fill:none;stroke:#959595;stroke-width:17.70609093;stroke-miterlimit:4;stroke-opacity:1;stroke-dasharray:none" />
    </g>
    <path
       d="m 597,923.35999 a 63,66 0 1 1 -126,0 63,66 0 1 1 126,0 z"
       transform="matrix(0.08629856,0,0,0.08629856,625.397,261.01009)"
       id="path4393"
       style="opacity:0.5;fill:none;stroke:#434343;stroke-width:9.38601971;stroke-miterlimit:4;stroke-opacity:1;stroke-dasharray:none;display:inline" />
    <path
       d="m 680.22792,415.37061 -6.77025,14.07568 13.5406,0 z"
       id="path4397"
       style="opacity:0.6;fill:#000000;fill-opacity:1;stroke:none;display:inline" />
    <path
       d="m 597,923.35999 a 63,66 0 1 1 -126,0 63,66 0 1 1 126,0 z"
       transform="matrix(0.08629856,0,0,0.08629856,398.34073,325.27251)"
       id="path4510"
       style="opacity:0.6;fill:#000000;fill-opacity:1;stroke:none;display:inline" />
    <path
       d="m 486.2166,370.85631 -41.5,33.97636"
       id="path4512"
       style="fill:none;stroke:#8c8c8c;stroke-width:1;stroke-linecap:butt;stroke-linejoin:miter;stroke-miterlimit:4;stroke-opacity:1;stroke-dasharray:none;display:inline" />
    <path
       d="m 597,923.35999 a 63,66 0 1 1 -126,0 63,66 0 1 1 126,0 z"
       transform="matrix(0.08629856,0,0,0.08629856,439.84073,290.77251)"
       id="path4514"
       style="opacity:0.5;fill:none;stroke:#434343;stroke-width:9.38601971;stroke-miterlimit:4;stroke-opacity:1;stroke-dasharray:none;display:inline" />
    <rect
       width="11.05641"
       height="11.05641"
       x="-486.76471"
       y="674.60791"
       transform="matrix(0,-1,1,0,0,0)"
       id="rect4516"
       style="opacity:0.6;fill:#000000;fill-opacity:1;stroke:none;display:inline" />
  </g>
</svg>
