<?xml version="1.0" encoding="UTF-8" standalone="no"?>
<!-- Created with Inkscape (http://www.inkscape.org/) -->

<svg
   xmlns:dc="http://purl.org/dc/elements/1.1/"
   xmlns:cc="http://creativecommons.org/ns#"
   xmlns:rdf="http://www.w3.org/1999/02/22-rdf-syntax-ns#"
   xmlns:svg="http://www.w3.org/2000/svg"
   xmlns="http://www.w3.org/2000/svg"
   xmlns:xlink="http://www.w3.org/1999/xlink"
   version="1.1"
   width="219.375"
   height="98.84375"
   id="svg2">
  <defs
     id="defs4">
    <marker
       refX="0"
       refY="0"
       orient="auto"
       id="Arrow2Lend"
       style="overflow:visible">
      <path
         d="M 8.7185878,4.0337352 -2.2072895,0.01601326 8.7185884,-4.0017078 c -1.7454984,2.3720609 -1.7354408,5.6174519 -6e-7,8.035443 z"
         transform="matrix(-1.1,0,0,-1.1,-1.1,0)"
         id="path4595"
         style="fill-rule:evenodd;stroke-width:0.625;stroke-linejoin:round" />
    </marker>
    <marker
       refX="0"
       refY="0"
       orient="auto"
       id="Arrow1Lend"
       style="overflow:visible">
      <path
         d="M 0,0 5,-5 -12.5,0 5,5 0,0 z"
         transform="matrix(-0.8,0,0,-0.8,-10,0)"
         id="path4577"
         style="fill-rule:evenodd;stroke:#000000;stroke-width:1pt" />
    </marker>
  </defs>
  <metadata
     id="metadata7">
    <rdf:RDF>
      <cc:Work
         rdf:about="">
        <dc:format>image/svg+xml</dc:format>
        <dc:type
           rdf:resource="http://purl.org/dc/dcmitype/StillImage" />
        <dc:title></dc:title>
      </cc:Work>
    </rdf:RDF>
  </metadata>
  <g
     transform="translate(-452.4375,-359.07874)"
     id="layer2"
     style="display:none">
    <image
       xlink:href="file:///Users/vern/Pictures/X11ScreenSnapz035.png"
       x="45.155151"
       y="177.10425"
       width="886"
       height="801"
       id="image3470" />
  </g>
  <g
     transform="translate(-452.4375,-359.07874)"
     id="layer3"
     style="opacity:0.7;display:inline">
    <path
       d="m 527.22122,398.64037 85.97635,0"
       id="path4030"
       style="fill:none;stroke:#808080;stroke-width:1;stroke-linecap:butt;stroke-linejoin:miter;stroke-miterlimit:4;stroke-opacity:1;stroke-dasharray:none;display:inline" />
    <path
       d="m 597,923.35999 a 63,66 0 1 1 -126,0 63,66 0 1 1 126,0 z"
       transform="matrix(0.08629856,0,0,0.08629856,481.23609,318.65046)"
       id="path4224"
       style="opacity:0.5;fill:none;stroke:#000000;stroke-width:9.38601971;stroke-miterlimit:4;stroke-opacity:1;stroke-dasharray:none;display:inline" />
    <rect
       width="11.05641"
       height="11.05641"
       x="121.87508"
       y="685.60101"
       transform="matrix(0.70710678,-0.70710678,0.70710678,0.70710678,0,0)"
       id="rect4460"
       style="opacity:0.6;fill:#000000;fill-opacity:1;stroke:none;display:inline" />
    <path
       d="m 588.72585,1158.9526 0,-31.9764"
       id="path4464"
       style="fill:none;stroke:#8c8c8c;stroke-width:1;stroke-linecap:butt;stroke-linejoin:miter;stroke-miterlimit:4;stroke-opacity:1;stroke-dasharray:none;display:inline" />
    <rect
       width="7.8101053"
       height="7.8101053"
       x="-1227.6444"
       y="-395.24216"
       transform="matrix(-0.70710678,-0.70710678,0.70710678,-0.70710678,0,0)"
       id="rect4470"
       style="fill:#9c9c9c;fill-opacity:1;stroke:none;display:inline" />
    <path
       d="m 597,923.35999 a 63,66 0 1 1 -126,0 63,66 0 1 1 126,0 z"
       transform="matrix(0,-0.05647774,0.05647774,0,536.56934,1157.0533)"
       id="path4499"
       style="fill:none;stroke:#9a9a9a;stroke-width:17.70609093;stroke-miterlimit:4;stroke-opacity:1;stroke-dasharray:none;display:inline" />
    <path
       d="m 597,923.35999 a 63,66 0 1 1 -126,0 63,66 0 1 1 126,0 z"
       transform="matrix(0,-0.05647774,0.05647774,0,536.56934,1188.9595)"
       id="path4501"
       style="fill:none;stroke:#9a9a9a;stroke-width:17.70609093;stroke-miterlimit:4;stroke-opacity:1;stroke-dasharray:none;display:inline" />
    <path
       d="m 945.6874,1158.9526 0,-31.9764"
       id="path4503"
       style="fill:none;stroke:#8c8c8c;stroke-width:1;stroke-linecap:butt;stroke-linejoin:miter;stroke-miterlimit:4;stroke-opacity:1;stroke-dasharray:none;display:inline" />
    <rect
       width="7.8101053"
       height="7.8101053"
       x="-1480.0536"
       y="-142.83221"
       transform="matrix(-0.70710678,-0.70710678,0.70710678,-0.70710678,0,0)"
       id="rect4505"
       style="fill:#9c9c9c;fill-opacity:1;stroke:none;display:inline" />
    <path
       d="m 597,923.35999 a 63,66 0 1 1 -126,0 63,66 0 1 1 126,0 z"
       transform="matrix(0,-0.05647774,0.05647774,0,893.5309,1157.0533)"
       id="path4507"
       style="fill:none;stroke:#9a9a9a;stroke-width:17.70609093;stroke-miterlimit:4;stroke-opacity:1;stroke-dasharray:none;display:inline" />
    <path
       d="m 597,923.35999 a 63,66 0 1 1 -126,0 63,66 0 1 1 126,0 z"
       transform="matrix(0,-0.05647774,0.05647774,0,893.5309,1188.9595)"
       id="path4509"
       style="fill:none;stroke:#9a9a9a;stroke-width:17.70609093;stroke-miterlimit:4;stroke-opacity:1;stroke-dasharray:none;display:inline" />
    <g
       transform="matrix(0,1,-1,0,1383.0249,412.3114)"
       id="g4517"
       style="display:inline">
      <path
         d="m 746.29299,785.3049 0,-9.97635"
         id="path4511"
         style="fill:none;stroke:#8c8c8c;stroke-width:1;stroke-linecap:butt;stroke-linejoin:miter;stroke-miterlimit:4;stroke-opacity:1;stroke-dasharray:none" />
      <path
         d="m 746.34014,780.08058 -5.52257,-9.63964 11.04515,0 z"
         id="path4513"
         style="fill:#9c9c9c;fill-opacity:1;stroke:none" />
      <path
         d="m 597,923.35999 a 63,66 0 1 1 -126,0 63,66 0 1 1 126,0 z"
         transform="matrix(0,-0.05647774,0.05647774,0,693.90335,815.32339)"
         id="path4515"
         style="fill:none;stroke:#959595;stroke-width:17.70609093;stroke-miterlimit:4;stroke-opacity:1;stroke-dasharray:none" />
      <path
         d="m 746.29299,443.56293 0,9.97635"
         id="path4522"
         style="fill:none;stroke:#8c8c8c;stroke-width:1;stroke-linecap:butt;stroke-linejoin:miter;stroke-miterlimit:4;stroke-opacity:1;stroke-dasharray:none" />
      <path
         d="m 746.34014,448.78725 -5.52257,9.63964 11.04515,0 z"
         id="path4524"
         style="fill:#9c9c9c;fill-opacity:1;stroke:none" />
      <path
         d="m 597,923.35999 a 63,66 0 1 1 -126,0 63,66 0 1 1 126,0 z"
         transform="matrix(0,0.05647774,0.05647774,0,693.90335,413.54444)"
         id="path4526"
         style="fill:none;stroke:#959595;stroke-width:17.70609093;stroke-miterlimit:4;stroke-opacity:1;stroke-dasharray:none" />
    </g>
    <path
       d="m 597,923.35999 a 63,66 0 1 1 -126,0 63,66 0 1 1 126,0 z"
       transform="matrix(0.08629856,0,0,0.08629856,566.80918,318.88804)"
       id="path4393"
       style="opacity:0.5;fill:none;stroke:#000000;stroke-width:9.38601971;stroke-miterlimit:4;stroke-opacity:1;stroke-dasharray:none;display:inline" />
    <path
       d="m 597,923.35999 a 63,66 0 1 1 -126,0 63,66 0 1 1 126,0 z"
       transform="matrix(0.08629856,0,0,0.08629856,414.34073,365.27251)"
       id="path4510"
       style="opacity:0.6;fill:#000000;fill-opacity:1;stroke:none;display:inline" />
    <path
       d="M 489.65371,419.3121 460.7166,444.83267"
       id="path4512"
       style="fill:none;stroke:#8c8c8c;stroke-width:1;stroke-linecap:butt;stroke-linejoin:miter;stroke-miterlimit:4;stroke-opacity:1;stroke-dasharray:none;display:inline" />
    <path
       d="m 597,923.35999 a 63,66 0 1 1 -126,0 63,66 0 1 1 126,0 z"
       transform="matrix(0.08629856,0,0,0.08629856,443.51943,339.2283)"
       id="path4514"
       style="opacity:0.5;fill:none;stroke:#434343;stroke-width:9.38601971;stroke-miterlimit:4;stroke-opacity:1;stroke-dasharray:none;display:inline" />
    <text
       x="547.95123"
       y="445.14923"
       id="text5202"
       xml:space="preserve"
       style="font-size:40px;font-style:normal;font-weight:normal;line-height:125%;letter-spacing:0px;word-spacing:0px;fill:#000000;fill-opacity:1;stroke:none;font-family:Sans"><tspan
         x="547.95123"
         y="445.14923"
         id="tspan5204"
         style="font-size:12px;font-style:normal;font-variant:normal;font-weight:normal;font-stretch:normal;font-family:OxygenSans;-inkscape-font-specification:OxygenSans">x,y</tspan></text>
    <path
       d="m 597,923.35999 a 63,66 0 1 1 -126,0 63,66 0 1 1 126,0 z"
       transform="matrix(-0.08629856,0,0,0.08629856,709.00533,359.47425)"
       id="path5227"
       style="opacity:0.6;fill:#000000;fill-opacity:1;stroke:none;display:inline" />
    <path
       d="m 642.14814,405.54124 20.48132,33.49317"
       id="path5229"
       style="fill:none;stroke:#8c8c8c;stroke-width:1;stroke-linecap:butt;stroke-linejoin:miter;stroke-miterlimit:4;stroke-opacity:1;stroke-dasharray:none;display:inline" />
    <path
       d="m 597,923.35999 a 63,66 0 1 1 -126,0 63,66 0 1 1 126,0 z"
       transform="matrix(-0.08629856,0,0,0.08629856,688.30981,325.91322)"
       id="path5231"
       style="opacity:0.5;fill:none;stroke:#434343;stroke-width:9.38601971;stroke-miterlimit:4;stroke-opacity:1;stroke-dasharray:none;display:inline" />
  </g>
  <g
     transform="translate(-452.4375,40.919095)"
     id="layer1"
     style="display:inline">
    <g
       transform="translate(16,39.8)"
       id="text4547"
       style="font-size:20.44048309px;font-style:normal;font-weight:normal;line-height:125%;letter-spacing:0px;word-spacing:0px;fill:#000000;fill-opacity:1;stroke:none;font-family:Sans" />
    <path
       d="m 460.5,44.82168 c 24.84359,-20.572188 73.534,-46.1941872 120.57236,-46.0175933 30.21296,0.1134272 59.74436,10.8702052 81.83735,40.4447403"
       id="path4489"
       style="opacity:0.6;fill:none;stroke:#000000;stroke-width:1.20000005;stroke-linecap:butt;stroke-linejoin:miter;stroke-miterlimit:4;stroke-opacity:1;stroke-dasharray:none;display:inline" />
    <path
       d="m 578.70607,-4.3832994 0,6.125779"
       id="path4560"
       style="fill:none;stroke:#000000;stroke-width:0.5;stroke-linecap:butt;stroke-linejoin:miter;stroke-miterlimit:4;stroke-opacity:1;stroke-dasharray:none" />
    <path
       d="m 458.54322,42.4386 3.89736,4.726065"
       id="path4562"
       style="fill:none;stroke:#000000;stroke-width:0.5;stroke-linecap:butt;stroke-linejoin:miter;stroke-miterlimit:4;stroke-opacity:1;stroke-dasharray:none" />
    <path
       d="M 555.2617,40.220352 C 558.04233,26.71139 565.1218,12.72518 578.03085,-0.86654038"
       id="path5200"
       style="fill:none;stroke:#000000;stroke-width:1px;stroke-linecap:butt;stroke-linejoin:miter;stroke-opacity:1;marker-end:url(#Arrow2Lend)" />
    <path
       d="m 665.18013,37.010602 -4.65194,3.985547"
       id="path5233"
       style="fill:none;stroke:#000000;stroke-width:0.5;stroke-linecap:butt;stroke-linejoin:miter;stroke-miterlimit:4;stroke-opacity:1;stroke-dasharray:none" />
  </g>
</svg>
