<?xml version="1.0" encoding="UTF-8" standalone="no"?>
<!-- Created with Inkscape (http://www.inkscape.org/) -->

<svg
   xmlns:dc="http://purl.org/dc/elements/1.1/"
   xmlns:cc="http://creativecommons.org/ns#"
   xmlns:rdf="http://www.w3.org/1999/02/22-rdf-syntax-ns#"
   xmlns:svg="http://www.w3.org/2000/svg"
   xmlns="http://www.w3.org/2000/svg"
   xmlns:sodipodi="http://sodipodi.sourceforge.net/DTD/sodipodi-0.dtd"
   xmlns:inkscape="http://www.inkscape.org/namespaces/inkscape"
   width="744.09448819"
   height="1052.3622047"
   id="svg2"
   version="1.1"
   inkscape:version="0.48.4 r"
   sodipodi:docname="New document 1">
  <defs
     id="defs4" />
  <sodipodi:namedview
     id="base"
     pagecolor="#ffffff"
     bordercolor="#666666"
     borderopacity="1.0"
     inkscape:pageopacity="0.0"
     inkscape:pageshadow="2"
     inkscape:zoom="9.1290142"
     inkscape:cx="132.14374"
     inkscape:cy="556.63675"
     inkscape:document-units="px"
     inkscape:current-layer="layer1"
     showgrid="false"
     inkscape:window-width="1504"
     inkscape:window-height="953"
     inkscape:window-x="0"
     inkscape:window-y="22"
     inkscape:window-maximized="0" />
  <metadata
     id="metadata7">
    <rdf:RDF>
      <cc:Work
         rdf:about="">
        <dc:format>image/svg+xml</dc:format>
        <dc:type
           rdf:resource="http://purl.org/dc/dcmitype/StillImage" />
        <dc:title></dc:title>
      </cc:Work>
    </rdf:RDF>
  </metadata>
  <g
     inkscape:label="Layer 1"
     inkscape:groupmode="layer"
     id="layer1">
    <path
       inkscape:connector-curvature="0"
       id="path2992"
       style="font-size:60px;font-style:normal;font-variant:normal;font-weight:normal;font-stretch:normal;line-height:125%;letter-spacing:0px;word-spacing:0px;fill:#000000;fill-opacity:1;stroke:none;font-family:OxygenSans;-inkscape-font-specification:OxygenSans"
       d="m 202.42517,465.76053 c -7.88085,0 -13.71094,6.26954 -13.71094,15.32226 0,9.37499 6.709,15.11719 14.58985,15.11719 4.36523,0 8.11523,-1.28906 10.10742,-2.49023 l -0.70313,-3.86719 c -2.57812,1.34765 -5.21484,2.49023 -8.87695,2.49023 -5.5664,0 -9.96094,-3.75 -10.07812,-10.45898 l 20.12695,0 c 0,0 0.17578,-1.78711 0.17578,-2.46094 0,-8.17382 -4.10157,-13.65234 -11.63086,-13.65234 m 0.14649,3.86719 c 4.71679,0 6.5332,3.16406 6.67968,8.93554 l -15.38086,0 c 0.49805,-5.5664 3.8672,-8.93554 8.70118,-8.93554" />
    <path
       inkscape:connector-curvature="0"
       id="path2994"
       style="font-size:60px;font-style:normal;font-variant:normal;font-weight:normal;font-stretch:normal;line-height:125%;letter-spacing:0px;word-spacing:0px;fill:#000000;fill-opacity:1;stroke:none;font-family:OxygenSans;-inkscape-font-specification:OxygenSans"
       d="m 233.59705,465.76053 c -3.7793,0 -8.29102,1.28906 -10.81055,2.69531 l 1.17187,3.66211 c 2.75391,-1.34765 6.94337,-2.49023 9.75586,-2.49023 4.18945,0 6.18164,1.875 6.18164,5.91796 l 0,2.57813 -4.77539,0.38086 c -8.3496,0.67383 -13.41797,3.10547 -13.41797,9.4043 0,5.39062 3.95509,8.29101 9.11133,8.29101 3.92578,0 7.5,-1.64063 9.28711,-4.27734 l 0.79102,3.6914 4.13086,0 0,-19.36523 c 0,-7.79296 -4.27735,-10.48828 -11.42578,-10.48828 m 6.29882,22.5 c -0.9375,2.51953 -4.89258,4.33594 -8.4375,4.33594 -2.43163,0 -4.6582,-1.43555 -4.6582,-4.65821 0,-4.10156 2.10938,-5.47851 9.75586,-6.38672 0.67383,-0.0879 3.33984,-0.29296 3.33984,-0.29296 l 0,7.00195" />
    <path
       inkscape:connector-curvature="0"
       d="m 170.37439,417.76053 c -4.18945,0 -7.44141,1.64063 -9.55078,4.80469 l -0.55664,-4.18946 -4.36524,0 0,29.23828 5.12696,0 0,-15.99609 c 0,-6.03515 2.34375,-9.99023 8.34961,-9.99023 4.48241,0 5.97656,2.90039 5.97656,7.73437 l 0,18.25195 5.12695,0 0,-17.92968 c 0,-7.85156 -3.36915,-11.92383 -10.10742,-11.92383"
       style="font-size:60px;font-style:normal;font-variant:normal;font-weight:normal;font-stretch:normal;line-height:125%;letter-spacing:0px;word-spacing:0px;fill:#000000;fill-opacity:1;stroke:none;font-family:OxygenSans;-inkscape-font-specification:OxygenSans"
       id="path2996" />
    <path
       inkscape:connector-curvature="0"
       d="m 202.42517,417.76053 c -7.88085,0 -13.71094,6.26954 -13.71094,15.32226 0,9.37499 6.709,15.11719 14.58985,15.11719 4.36523,0 8.11523,-1.28906 10.10742,-2.49023 l -0.70313,-3.86719 c -2.57812,1.34765 -5.21484,2.49023 -8.87695,2.49023 -5.5664,0 -9.96094,-3.75 -10.07812,-10.45898 l 20.12695,0 c 0,0 0.17578,-1.78711 0.17578,-2.46094 0,-8.17382 -4.10157,-13.65234 -11.63086,-13.65234 m 0.14649,3.86719 c 4.71679,0 6.5332,3.16406 6.67968,8.93554 l -15.38086,0 c 0.49805,-5.5664 3.8672,-8.93554 8.70118,-8.93554"
       style="font-size:60px;font-style:normal;font-variant:normal;font-weight:normal;font-stretch:normal;line-height:125%;letter-spacing:0px;word-spacing:0px;fill:#000000;fill-opacity:1;stroke:none;font-family:OxygenSans;-inkscape-font-specification:OxygenSans"
       id="path2998" />
    <path
       inkscape:connector-curvature="0"
       d="m 233.59705,417.76053 c -3.7793,0 -8.29102,1.28906 -10.81055,2.69531 l 1.17187,3.66211 c 2.75391,-1.34765 6.94337,-2.49023 9.75586,-2.49023 4.18945,0 6.18164,1.875 6.18164,5.91796 l 0,2.57813 -4.77539,0.38086 c -8.3496,0.67383 -13.41797,3.10547 -13.41797,9.4043 0,5.39062 3.95509,8.29101 9.11133,8.29101 3.92578,0 7.5,-1.64063 9.28711,-4.27734 l 0.79102,3.6914 4.13086,0 0,-19.36523 c 0,-7.79296 -4.27735,-10.48828 -11.42578,-10.48828 m 6.29882,22.5 c -0.9375,2.51953 -4.89258,4.33594 -8.4375,4.33594 -2.43163,0 -4.6582,-1.43555 -4.6582,-4.65821 0,-4.10156 2.10938,-5.47851 9.75586,-6.38672 0.67383,-0.0879 3.33984,-0.29296 3.33984,-0.29296 l 0,7.00195"
       style="font-size:60px;font-style:normal;font-variant:normal;font-weight:normal;font-stretch:normal;line-height:125%;letter-spacing:0px;word-spacing:0px;fill:#000000;fill-opacity:1;stroke:none;font-family:OxygenSans;-inkscape-font-specification:OxygenSans"
       id="path3000" />
    <path
       sodipodi:nodetypes="cccc"
       inkscape:connector-curvature="0"
       d="m 111.35486,477.36209 0,18.25195 5.12695,0 0,-17.92968"
       style="font-size:60px;font-style:normal;font-variant:normal;font-weight:normal;font-stretch:normal;line-height:125%;letter-spacing:0px;word-spacing:0px;fill:#ac9393;fill-opacity:1;stroke:none;font-family:OxygenSans;-inkscape-font-specification:OxygenSans"
       id="path3002" />
    <path
       sodipodi:nodetypes="ccccc"
       id="path3004"
       style="font-size:60px;font-style:normal;font-variant:normal;font-weight:normal;font-stretch:normal;line-height:125%;letter-spacing:0px;word-spacing:0px;fill:#6c5353;fill-opacity:1;stroke:none;font-family:OxygenSans;-inkscape-font-specification:OxygenSans"
       d="m 96.987921,471.16769 -1.706819,-4.79193 -3.379372,0 0,29.23828 5.12696,0"
       inkscape:connector-curvature="0" />
    <path
       style="font-size:60px;font-style:normal;font-variant:normal;font-weight:normal;font-stretch:normal;line-height:125%;letter-spacing:0px;word-spacing:0px;fill:#916f6f;fill-opacity:1;stroke:none;font-family:OxygenSans;-inkscape-font-specification:OxygenSans"
       d="m 106.25066,465.75 c -4.18945,0 -8.123841,1.64844 -10.233211,4.8125 l 0.21875,5.21875 c 0,0 3.570441,-6.15625 9.576301,-6.15625 4.48241,0 5.53125,3.29102 5.53125,8.125 0,0 5.125,0.0456 5.125,-0.0625 0,-7.85156 -3.47982,-11.9375 -10.21809,-11.9375 z"
       id="path3006"
       inkscape:connector-curvature="0"
       sodipodi:nodetypes="sccscss" />
    <path
       id="path3019"
       style="font-size:60px;font-style:normal;font-variant:normal;font-weight:normal;font-stretch:normal;line-height:125%;letter-spacing:0px;word-spacing:0px;fill:#ac9393;fill-opacity:1;stroke:none;font-family:OxygenSans;-inkscape-font-specification:OxygenSans"
       d="m 141.35486,477.36209 0,18.25195 5.12695,0 0,-17.92968"
       inkscape:connector-curvature="0"
       sodipodi:nodetypes="cccc" />
    <path
       inkscape:connector-curvature="0"
       d="m 126.98792,471.16769 -0.0637,-4.79193 -5.02249,0 0,29.23828 5.12696,0"
       style="font-size:60px;font-style:normal;font-variant:normal;font-weight:normal;font-stretch:normal;line-height:125%;letter-spacing:0px;word-spacing:0px;fill:#6c5353;fill-opacity:1;stroke:none;font-family:OxygenSans;-inkscape-font-specification:OxygenSans"
       id="path3021"
       sodipodi:nodetypes="ccccc" />
    <path
       sodipodi:nodetypes="cccscssc"
       inkscape:connector-curvature="0"
       id="path3023"
       d="m 136.25066,465.75 c -5.44917,0 -8.20512,2.36046 -9.43816,4.8125 l 0.16394,8.23112 c 0,0 -0.37479,-9.16862 7.93143,-9.16862 4.48241,0 6.43584,3.29102 6.43584,8.125 0,0 5.125,0.0456 5.125,-0.0625 0,-7.85156 -4.19184,-11.9375 -10.21809,-11.9375 z"
       style="font-size:60px;font-style:normal;font-variant:normal;font-weight:normal;font-stretch:normal;line-height:125%;letter-spacing:0px;word-spacing:0px;fill:#916f6f;fill-opacity:1;stroke:none;font-family:OxygenSans;-inkscape-font-specification:OxygenSans" />
    <path
       id="path3025"
       style="font-size:60px;font-style:normal;font-variant:normal;font-weight:normal;font-stretch:normal;line-height:125%;letter-spacing:0px;word-spacing:0px;fill:#ac9393;fill-opacity:1;stroke:none;font-family:OxygenSans;-inkscape-font-specification:OxygenSans"
       d="m 83.35486,477.36209 0,18.25195 5.12695,0 0,-17.92968"
       inkscape:connector-curvature="0"
       sodipodi:nodetypes="cccc" />
    <path
       inkscape:connector-curvature="0"
       d="m 68.987921,471.16769 -1.706819,-4.79193 -3.379372,0 0,29.23828 5.12696,0"
       style="font-size:60px;font-style:normal;font-variant:normal;font-weight:normal;font-stretch:normal;line-height:125%;letter-spacing:0px;word-spacing:0px;fill:#6c5353;fill-opacity:1;stroke:none;font-family:OxygenSans;-inkscape-font-specification:OxygenSans"
       id="path3027"
       sodipodi:nodetypes="ccccc" />
    <path
       sodipodi:nodetypes="sccscss"
       inkscape:connector-curvature="0"
       id="path3029"
       d="m 78.25066,465.75 c -6.654119,0.0548 -10.945397,4.52477 -13.43816,6.8125 l 0.21875,5.21875 c 0,0 6.77539,-8.15625 12.78125,-8.15625 4.48241,0 5.53125,3.29102 5.53125,8.125 0,0 5.125,0.0456 5.125,-0.0625 0,-7.85156 -3.480048,-11.99296 -10.21809,-11.9375 z"
       style="font-size:60px;font-style:normal;font-variant:normal;font-weight:normal;font-stretch:normal;line-height:125%;letter-spacing:0px;word-spacing:0px;fill:#916f6f;fill-opacity:1;stroke:none;font-family:OxygenSans;-inkscape-font-specification:OxygenSans" />
    <path
       sodipodi:nodetypes="cccc"
       inkscape:connector-curvature="0"
       d="m 170.9167,476.37622 0,19.23782 5.12695,0 0,-19.24417"
       style="font-size:60px;font-style:normal;font-variant:normal;font-weight:normal;font-stretch:normal;line-height:125%;letter-spacing:0px;word-spacing:0px;fill:#ac9393;fill-opacity:1;stroke:none;font-family:OxygenSans;-inkscape-font-specification:OxygenSans"
       id="path3031" />
    <path
       sodipodi:nodetypes="ccccc"
       id="path3033"
       style="font-size:60px;font-style:normal;font-variant:normal;font-weight:normal;font-stretch:normal;line-height:125%;letter-spacing:0px;word-spacing:0px;fill:#6c5353;fill-opacity:1;stroke:none;font-family:OxygenSans;-inkscape-font-specification:OxygenSans"
       d="m 156.54976,471.16769 -0.0637,-4.79193 -5.02249,0 0,29.23828 5.12696,0"
       inkscape:connector-curvature="0" />
    <path
       style="font-size:60px;font-style:normal;font-variant:normal;font-weight:normal;font-stretch:normal;line-height:125%;letter-spacing:0px;word-spacing:0px;fill:#916f6f;fill-opacity:1;stroke:none;font-family:OxygenSans;-inkscape-font-specification:OxygenSans"
       d="m 166.03158,465.75 c -5.02494,0 -11.35688,3.09842 -11.35688,13.03158 l 1.86358,0.012 c 0,0 -0.81295,-9.16862 7.49327,-9.16862 4.48241,0 6.874,2.08607 6.874,6.92005 0,0 5.125,0.0456 5.125,-0.0625 0,-9.11103 -5.83819,-10.73251 -9.99897,-10.73251 z"
       id="path3035"
       inkscape:connector-curvature="0"
       sodipodi:nodetypes="cccsccc" />
    <path
       sodipodi:nodetypes="cccc"
       inkscape:connector-curvature="0"
       d="m 83.35486,519.36209 0,12.25195 5.12695,0 0,-11.92968"
       style="font-size:60px;font-style:normal;font-variant:normal;font-weight:normal;font-stretch:normal;line-height:125%;letter-spacing:0px;word-spacing:0px;fill:#ac9393;fill-opacity:1;stroke:none;font-family:OxygenSans;-inkscape-font-specification:OxygenSans"
       id="path3037" />
    <path
       sodipodi:nodetypes="ccccc"
       id="path3039"
       style="font-size:60px;font-style:normal;font-variant:normal;font-weight:normal;font-stretch:normal;line-height:125%;letter-spacing:0px;word-spacing:0px;fill:#6c5353;fill-opacity:1;stroke:none;font-family:OxygenSans;-inkscape-font-specification:OxygenSans"
       d="m 68.987921,507.16769 -1.706819,-4.79193 -3.379372,0 0,29.23828 5.12696,0"
       inkscape:connector-curvature="0" />
    <path
       style="font-size:60px;font-style:normal;font-variant:normal;font-weight:normal;font-stretch:normal;line-height:125%;letter-spacing:0px;word-spacing:0px;fill:#916f6f;fill-opacity:1;stroke:none;font-family:OxygenSans;-inkscape-font-specification:OxygenSans"
       d="m 78.25066,501.75 c -6.654119,0.0548 -10.945397,4.52477 -13.43816,6.8125 l 0.21875,5.21875 c 0,0 6.77539,-8.15625 12.78125,-8.15625 4.48241,0 5.53125,4.25214 5.53125,14.125 0,0 5.125,0.0456 5.125,-0.0625 0,-13.22315 -3.480048,-17.99296 -10.21809,-17.9375 z"
       id="path3041"
       inkscape:connector-curvature="0"
       sodipodi:nodetypes="sccscss" />
    <path
       id="path3043"
       style="font-size:60px;font-style:normal;font-variant:normal;font-weight:normal;font-stretch:normal;line-height:125%;letter-spacing:0px;word-spacing:0px;fill:#ac9393;fill-opacity:1;stroke:none;font-family:OxygenSans;-inkscape-font-specification:OxygenSans"
       d="m 111.35486,513.36209 0,18.25195 5.12695,0 0,-17.92968"
       inkscape:connector-curvature="0"
       sodipodi:nodetypes="cccc" />
    <path
       inkscape:connector-curvature="0"
       d="m 96.987921,507.16769 -2.830492,-4.79193 -2.255699,0 0,29.23828 5.12696,0"
       style="font-size:60px;font-style:normal;font-variant:normal;font-weight:normal;font-stretch:normal;line-height:125%;letter-spacing:0px;word-spacing:0px;fill:#6c5353;fill-opacity:1;stroke:none;font-family:OxygenSans;-inkscape-font-specification:OxygenSans"
       id="path3045"
       sodipodi:nodetypes="ccccc" />
    <path
       sodipodi:nodetypes="sccscss"
       inkscape:connector-curvature="0"
       id="path3047"
       d="m 106.68882,501.75 c -4.73715,0 -8.809348,1.45762 -12.999994,6.92204 l 2.547373,3.10921 c 0,0 3.570441,-6.15625 9.576301,-6.15625 4.48241,0 5.53125,3.29102 5.53125,8.125 0,0 5.125,0.0456 5.125,-0.0625 0,-7.85156 -3.1401,-11.9375 -9.77993,-11.9375 z"
       style="font-size:60px;font-style:normal;font-variant:normal;font-weight:normal;font-stretch:normal;line-height:125%;letter-spacing:0px;word-spacing:0px;fill:#916f6f;fill-opacity:1;stroke:none;font-family:OxygenSans;-inkscape-font-specification:OxygenSans" />
  </g>
</svg>
