<?xml version="1.0" encoding="UTF-8" standalone="no"?>
<!-- Created with Inkscape (http://www.inkscape.org/) -->

<svg
   xmlns:dc="http://purl.org/dc/elements/1.1/"
   xmlns:cc="http://creativecommons.org/ns#"
   xmlns:rdf="http://www.w3.org/1999/02/22-rdf-syntax-ns#"
   xmlns:svg="http://www.w3.org/2000/svg"
   xmlns="http://www.w3.org/2000/svg"
   xmlns:xlink="http://www.w3.org/1999/xlink"
   version="1.1"
   width="219.375"
   height="98.84375"
   id="svg2">
  <defs
     id="defs4">
    <marker
       refX="0"
       refY="0"
       orient="auto"
       id="Arrow2Lend"
       style="overflow:visible">
      <path
         d="M 8.7185878,4.0337352 -2.2072895,0.01601326 8.7185884,-4.0017078 c -1.7454984,2.3720609 -1.7354408,5.6174519 -6e-7,8.035443 z"
         transform="matrix(-1.1,0,0,-1.1,-1.1,0)"
         id="path4595"
         style="fill-rule:evenodd;stroke-width:0.625;stroke-linejoin:round" />
    </marker>
    <marker
       refX="0"
       refY="0"
       orient="auto"
       id="Arrow1Lend"
       style="overflow:visible">
      <path
         d="M 0,0 5,-5 -12.5,0 5,5 0,0 z"
         transform="matrix(-0.8,0,0,-0.8,-10,0)"
         id="path4577"
         style="fill-rule:evenodd;stroke:#000000;stroke-width:1pt" />
    </marker>
  </defs>
  <metadata
     id="metadata7">
    <rdf:RDF>
      <cc:Work
         rdf:about="">
        <dc:format>image/svg+xml</dc:format>
        <dc:type
           rdf:resource="http://purl.org/dc/dcmitype/StillImage" />
        <dc:title></dc:title>
      </cc:Work>
    </rdf:RDF>
  </metadata>
  <g
     transform="translate(-452.4375,-359.07874)"
     id="layer2"
     style="display:none">
    <image
       xlink:href="file:///Users/vern/Pictures/X11ScreenSnapz035.png"
       x="45.155151"
       y="177.10425"
       width="886"
       height="801"
       id="image3470" />
  </g>
  <g
     transform="translate(-452.4375,-359.07874)"
     id="layer3"
     style="opacity:0.7;display:inline">
    <path
       d="m 545.56745,380.76242 103.97635,0"
       id="path4030"
       style="fill:none;stroke:#808080;stroke-width:1;stroke-linecap:butt;stroke-linejoin:miter;stroke-miterlimit:4;stroke-opacity:1;stroke-dasharray:none;display:inline" />
    <path
       d="m 597,923.35999 a 63,66 0 1 1 -126,0 63,66 0 1 1 126,0 z"
       transform="matrix(0.08629856,0,0,0.08629856,499.34073,300.77251)"
       id="path4224"
       style="opacity:0.5;fill:none;stroke:#000000;stroke-width:9.38601971;stroke-miterlimit:4;stroke-opacity:1;stroke-dasharray:none;display:inline" />
    <rect
       width="11.05641"
       height="11.05641"
       x="165.87422"
       y="704.31677"
       transform="matrix(0.70710678,-0.70710678,0.70710678,0.70710678,0,0)"
       id="rect4460"
       style="opacity:0.6;fill:#000000;fill-opacity:1;stroke:none;display:inline" />
    <path
       d="m 592.72585,1158.9526 0,-31.9764"
       id="path4464"
       style="fill:none;stroke:#8c8c8c;stroke-width:1;stroke-linecap:butt;stroke-linejoin:miter;stroke-miterlimit:4;stroke-opacity:1;stroke-dasharray:none;display:inline" />
    <rect
       width="7.8101053"
       height="7.8101053"
       x="-1230.4728"
       y="-392.41373"
       transform="matrix(-0.70710678,-0.70710678,0.70710678,-0.70710678,0,0)"
       id="rect4470"
       style="fill:#9c9c9c;fill-opacity:1;stroke:none;display:inline" />
    <path
       d="m 597,923.35999 a 63,66 0 1 1 -126,0 63,66 0 1 1 126,0 z"
       transform="matrix(0,-0.05647774,0.05647774,0,540.56934,1157.0533)"
       id="path4499"
       style="fill:none;stroke:#9a9a9a;stroke-width:17.70609093;stroke-miterlimit:4;stroke-opacity:1;stroke-dasharray:none;display:inline" />
    <path
       d="m 597,923.35999 a 63,66 0 1 1 -126,0 63,66 0 1 1 126,0 z"
       transform="matrix(0,-0.05647774,0.05647774,0,540.56934,1188.9595)"
       id="path4501"
       style="fill:none;stroke:#9a9a9a;stroke-width:17.70609093;stroke-miterlimit:4;stroke-opacity:1;stroke-dasharray:none;display:inline" />
    <path
       d="m 949.6874,1158.9526 0,-31.9764"
       id="path4503"
       style="fill:none;stroke:#8c8c8c;stroke-width:1;stroke-linecap:butt;stroke-linejoin:miter;stroke-miterlimit:4;stroke-opacity:1;stroke-dasharray:none;display:inline" />
    <rect
       width="7.8101053"
       height="7.8101053"
       x="-1482.882"
       y="-140.00378"
       transform="matrix(-0.70710678,-0.70710678,0.70710678,-0.70710678,0,0)"
       id="rect4505"
       style="fill:#9c9c9c;fill-opacity:1;stroke:none;display:inline" />
    <path
       d="m 597,923.35999 a 63,66 0 1 1 -126,0 63,66 0 1 1 126,0 z"
       transform="matrix(0,-0.05647774,0.05647774,0,897.5309,1157.0533)"
       id="path4507"
       style="fill:none;stroke:#9a9a9a;stroke-width:17.70609093;stroke-miterlimit:4;stroke-opacity:1;stroke-dasharray:none;display:inline" />
    <path
       d="m 597,923.35999 a 63,66 0 1 1 -126,0 63,66 0 1 1 126,0 z"
       transform="matrix(0,-0.05647774,0.05647774,0,897.5309,1188.9595)"
       id="path4509"
       style="fill:none;stroke:#9a9a9a;stroke-width:17.70609093;stroke-miterlimit:4;stroke-opacity:1;stroke-dasharray:none;display:inline" />
    <g
       transform="matrix(0,1,-1,0,1387.0249,412.3114)"
       id="g4517"
       style="display:inline">
      <path
         d="m 746.29299,785.3049 0,-9.97635"
         id="path4511"
         style="fill:none;stroke:#8c8c8c;stroke-width:1;stroke-linecap:butt;stroke-linejoin:miter;stroke-miterlimit:4;stroke-opacity:1;stroke-dasharray:none" />
      <path
         d="m 746.34014,780.08058 -5.52257,-9.63964 11.04515,0 z"
         id="path4513"
         style="fill:#9c9c9c;fill-opacity:1;stroke:none" />
      <path
         d="m 597,923.35999 a 63,66 0 1 1 -126,0 63,66 0 1 1 126,0 z"
         transform="matrix(0,-0.05647774,0.05647774,0,693.90335,815.32339)"
         id="path4515"
         style="fill:none;stroke:#959595;stroke-width:17.70609093;stroke-miterlimit:4;stroke-opacity:1;stroke-dasharray:none" />
      <path
         d="m 746.29299,443.56293 0,9.97635"
         id="path4522"
         style="fill:none;stroke:#8c8c8c;stroke-width:1;stroke-linecap:butt;stroke-linejoin:miter;stroke-miterlimit:4;stroke-opacity:1;stroke-dasharray:none" />
      <path
         d="m 746.34014,448.78725 -5.52257,9.63964 11.04515,0 z"
         id="path4524"
         style="fill:#9c9c9c;fill-opacity:1;stroke:none" />
      <path
         d="m 597,923.35999 a 63,66 0 1 1 -126,0 63,66 0 1 1 126,0 z"
         transform="matrix(0,0.05647774,0.05647774,0,693.90335,413.54444)"
         id="path4526"
         style="fill:none;stroke:#959595;stroke-width:17.70609093;stroke-miterlimit:4;stroke-opacity:1;stroke-dasharray:none" />
    </g>
    <path
       d="m 597,923.35999 a 63,66 0 1 1 -126,0 63,66 0 1 1 126,0 z"
       transform="matrix(0.08629856,0,0,0.08629856,603.397,301.01009)"
       id="path4393"
       style="opacity:0.5;fill:none;stroke:#000000;stroke-width:9.38601971;stroke-miterlimit:4;stroke-opacity:1;stroke-dasharray:none;display:inline" />
    <path
       d="m 597,923.35999 a 63,66 0 1 1 -126,0 63,66 0 1 1 126,0 z"
       transform="matrix(0.08629856,0,0,0.08629856,418.34073,365.27251)"
       id="path4510"
       style="opacity:0.6;fill:#000000;fill-opacity:1;stroke:none;display:inline" />
    <path
       d="m 506.2166,410.85631 -41.5,33.97636"
       id="path4512"
       style="fill:none;stroke:#8c8c8c;stroke-width:1;stroke-linecap:butt;stroke-linejoin:miter;stroke-miterlimit:4;stroke-opacity:1;stroke-dasharray:none;display:inline" />
    <path
       d="m 597,923.35999 a 63,66 0 1 1 -126,0 63,66 0 1 1 126,0 z"
       transform="matrix(0.08629856,0,0,0.08629856,459.84073,330.77251)"
       id="path4514"
       style="opacity:0.5;fill:none;stroke:#434343;stroke-width:9.38601971;stroke-miterlimit:4;stroke-opacity:1;stroke-dasharray:none;display:inline" />
    <text
       x="500.29755"
       y="385.27127"
       id="text4564"
       xml:space="preserve"
       style="font-size:40px;font-style:normal;font-weight:normal;line-height:125%;letter-spacing:0px;word-spacing:0px;fill:#000000;fill-opacity:1;stroke:none;font-family:Sans"><tspan
         x="500.29755"
         y="385.27127"
         id="tspan4566"
         style="font-size:12px;font-style:normal;font-variant:normal;font-weight:normal;font-stretch:normal;font-family:OxygenSans;-inkscape-font-specification:OxygenSans">x,y</tspan></text>
    <text
       x="592.29755"
       y="427.27127"
       id="text5202"
       xml:space="preserve"
       style="font-size:40px;font-style:normal;font-weight:normal;line-height:125%;letter-spacing:0px;word-spacing:0px;fill:#000000;fill-opacity:1;stroke:none;font-family:Sans"><tspan
         x="592.29755"
         y="427.27127"
         id="tspan5204"
         style="font-size:12px;font-style:normal;font-variant:normal;font-weight:normal;font-stretch:normal;font-family:OxygenSans;-inkscape-font-specification:OxygenSans">x,y</tspan></text>
  </g>
  <g
     transform="translate(-452.4375,40.919095)"
     id="layer1"
     style="display:inline">
    <g
       transform="translate(20,39.8)"
       id="text4547"
       style="font-size:20.44048309px;font-style:normal;font-weight:normal;line-height:125%;letter-spacing:0px;word-spacing:0px;fill:#000000;fill-opacity:1;stroke:none;font-family:Sans" />
    <path
       d="m 464.5,44.82168 c 71,-42 109.4396,-64.2802 158.4396,-64.2802"
       id="path4489"
       style="opacity:0.6;fill:none;stroke:#000000;stroke-width:1.20000005;stroke-linecap:butt;stroke-linejoin:miter;stroke-miterlimit:4;stroke-opacity:1;stroke-dasharray:none;display:inline" />
    <path
       d="m 623.0523,-22.261257 0,6.125779"
       id="path4560"
       style="fill:none;stroke:#000000;stroke-width:0.5;stroke-linecap:butt;stroke-linejoin:miter;stroke-miterlimit:4;stroke-opacity:1;stroke-dasharray:none" />
    <path
       d="m 463.05027,42.099228 2.88326,5.404809"
       id="path4562"
       style="fill:none;stroke:#000000;stroke-width:0.5;stroke-linecap:butt;stroke-linejoin:miter;stroke-miterlimit:4;stroke-opacity:1;stroke-dasharray:none" />
    <path
       d="m 86,63.4 c 1.575424,0.879446 13.437083,3.989445 30.2,-4.4"
       transform="translate(429,-77.637845)"
       id="path4568"
       style="fill:none;stroke:#000000;stroke-width:1px;stroke-linecap:butt;stroke-linejoin:miter;stroke-opacity:1;marker-end:url(#Arrow2Lend)" />
    <path
       d="m 599.60793,22.342394 c 2.78063,-13.5089614 9.8601,-27.4951714 22.76915,-41.086892"
       id="path5200"
       style="fill:none;stroke:#000000;stroke-width:1px;stroke-linecap:butt;stroke-linejoin:miter;stroke-opacity:1;marker-end:url(#Arrow2Lend)" />
  </g>
</svg>
